<svg width="309" height="144" viewBox="0 0 309 144" xmlns="http://www.w3.org/2000/svg"><title>Horizontal</title><g fill="none" fill-rule="evenodd"><path d="M154.459 5.35a10.984 10.984 0 0 1 6.604 2.107L201.633 37H291c3.59 0 6.84 1.455 9.192 3.808A12.96 12.96 0 0 1 304 50v76c0 3.59-1.455 6.84-3.808 9.192A12.96 12.96 0 0 1 291 139H18a12.96 12.96 0 0 1-9.192-3.808A12.96 12.96 0 0 1 5 126V50c0-3.59 1.455-6.84 3.808-9.192A12.96 12.96 0 0 1 18 37h91.483l38.422-29.388a10.984 10.984 0 0 1 6.554-2.262z" stroke="#FFDD17" stroke-width="10" fill="#FFF"/><path stroke="#EED009" stroke-width="2" stroke-linecap="square" d="M124 90h160"/><path d="M138.541 81h-1.816l-2.784-9.355c-.41-1.394-.65-2.334-.722-2.823-.104.749-.332 1.71-.684 2.881L129.84 81h-1.817l-3.779-14.277h1.875l2.217 8.72c.3 1.14.527 2.272.684 3.399.143-1.068.397-2.237.761-3.506l2.52-8.613h1.855l2.627 8.681c.339 1.127.6 2.272.781 3.438.105-.899.336-2.038.694-3.418l2.207-8.701h1.875L138.54 81zm10.127.195c-1.608 0-2.87-.486-3.784-1.46-.915-.973-1.372-2.312-1.372-4.018 0-1.719.426-3.088 1.279-4.107.853-1.019 2.005-1.528 3.457-1.528 1.348 0 2.422.435 3.223 1.304.8.869 1.2 2.046 1.2 3.53v1.064h-7.343c.033 1.218.342 2.142.928 2.774.586.631 1.416.947 2.49.947a8.46 8.46 0 0 0 1.631-.151c.514-.101 1.116-.298 1.807-.591v1.543a8.506 8.506 0 0 1-1.67.537c-.521.104-1.136.156-1.846.156zm-.44-9.677c-.84 0-1.503.27-1.992.81-.488.54-.778 1.292-.869 2.256h5.46c-.014-1.003-.245-1.764-.694-2.285-.45-.521-1.084-.781-1.904-.781zm12.237-1.416c1.413 0 2.503.486 3.271 1.46.769.973 1.153 2.332 1.153 4.077 0 1.77-.39 3.14-1.172 4.106-.781.967-1.865 1.45-3.252 1.45-.723 0-1.367-.13-1.934-.39a3.384 3.384 0 0 1-1.386-1.162h-.137a48.209 48.209 0 0 1-.362 1.357h-1.26V65.805h1.759v3.691c0 .736-.033 1.471-.098 2.207h.098c.722-1.068 1.829-1.601 3.32-1.601zm-.293 1.455c-1.08 0-1.856.306-2.324.918-.47.612-.703 1.647-.703 3.105v.078c0 1.465.239 2.512.717 3.14.479.628 1.262.942 2.349.942.963 0 1.681-.353 2.153-1.06.472-.706.708-1.726.708-3.06 0-1.355-.237-2.37-.713-3.048-.475-.677-1.204-1.015-2.187-1.015zM182.086 81l-1.719-4.424h-5.664l-1.7 4.424h-1.815l5.576-14.336h1.62L183.952 81h-1.865zm-2.256-6.016l-1.601-4.326-.684-2.138c-.195.78-.4 1.494-.615 2.138l-1.621 4.326h4.521zm10.137 6.211c-1.543 0-2.744-.473-3.604-1.42-.86-.948-1.289-2.307-1.289-4.078 0-1.797.435-3.182 1.304-4.155.87-.973 2.108-1.46 3.716-1.46.52 0 1.037.054 1.548.161.51.108.932.246 1.264.415l-.537 1.465c-.905-.338-1.676-.508-2.314-.508-1.081 0-1.879.34-2.393 1.02-.514.681-.771 1.695-.771 3.043 0 1.295.257 2.287.771 2.973.514.687 1.276 1.03 2.285 1.03.944 0 1.872-.208 2.783-.624v1.562c-.742.384-1.663.576-2.763.576zm9.6 0c-1.544 0-2.745-.473-3.604-1.42-.86-.948-1.29-2.307-1.29-4.078 0-1.797.435-3.182 1.305-4.155.869-.973 2.107-1.46 3.715-1.46.521 0 1.037.054 1.548.161.511.108.933.246 1.265.415l-.537 1.465c-.905-.338-1.677-.508-2.315-.508-1.08 0-1.878.34-2.392 1.02-.515.681-.772 1.695-.772 3.043 0 1.295.257 2.287.772 2.973.514.687 1.276 1.03 2.285 1.03.944 0 1.872-.208 2.783-.624v1.562c-.742.384-1.663.576-2.764.576zm9.863 0c-1.608 0-2.87-.486-3.784-1.46-.915-.973-1.373-2.312-1.373-4.018 0-1.719.427-3.088 1.28-4.107.853-1.019 2.005-1.528 3.457-1.528 1.347 0 2.422.435 3.222 1.304.801.869 1.202 2.046 1.202 3.53v1.064h-7.344c.032 1.218.342 2.142.928 2.774.586.631 1.416.947 2.49.947a8.46 8.46 0 0 0 1.63-.151c.515-.101 1.117-.298 1.807-.591v1.543a8.506 8.506 0 0 1-1.67.537c-.52.104-1.136.156-1.845.156zm-.44-9.677c-.84 0-1.504.27-1.992.81s-.778 1.292-.87 2.256h5.46c-.013-1.003-.244-1.764-.693-2.285-.45-.521-1.084-.781-1.905-.781zm14.14 6.523c0 1.003-.373 1.779-1.122 2.33-.749.55-1.8.824-3.154.824-1.413 0-2.536-.224-3.37-.674V78.92c1.179.573 2.315.86 3.409.86.885 0 1.53-.144 1.933-.43.404-.287.606-.671.606-1.153 0-.423-.194-.781-.581-1.074-.388-.293-1.076-.628-2.066-1.006-1.009-.39-1.719-.724-2.129-1-.41-.277-.711-.588-.903-.933-.192-.345-.288-.765-.288-1.26 0-.88.358-1.572 1.074-2.08.716-.508 1.7-.762 2.95-.762a8.17 8.17 0 0 1 3.417.723l-.595 1.396c-1.088-.456-2.068-.683-2.94-.683-.73 0-1.282.115-1.66.346-.378.231-.566.549-.566.952 0 .391.162.715.488.972.325.257 1.084.614 2.275 1.07.892.331 1.551.64 1.978.927.426.287.74.609.942.967.202.358.303.788.303 1.289zm9.58 0c0 1.003-.373 1.779-1.122 2.33-.749.55-1.8.824-3.154.824-1.413 0-2.536-.224-3.37-.674V78.92c1.179.573 2.315.86 3.409.86.885 0 1.53-.144 1.933-.43.404-.287.606-.671.606-1.153 0-.423-.194-.781-.581-1.074-.388-.293-1.076-.628-2.066-1.006-1.009-.39-1.719-.724-2.129-1-.41-.277-.71-.588-.903-.933-.192-.345-.288-.765-.288-1.26 0-.88.358-1.572 1.074-2.08.716-.508 1.7-.762 2.95-.762a8.17 8.17 0 0 1 3.417.723l-.595 1.396c-1.088-.456-2.067-.683-2.94-.683-.729 0-1.282.115-1.66.346-.378.231-.566.549-.566.952 0 .391.162.715.488.972.325.257 1.084.614 2.275 1.07.892.331 1.551.64 1.978.927.426.287.74.609.942.967.202.358.303.788.303 1.289zM237.067 81h-1.757V70.277h1.757V81zm-1.894-13.623c0-.39.1-.674.298-.85.198-.175.444-.263.737-.263.273 0 .513.088.718.263.205.176.307.46.307.85 0 .384-.102.667-.307.85a1.047 1.047 0 0 1-.718.273 1.05 1.05 0 0 1-.737-.273c-.199-.183-.298-.466-.298-.85zm10.371 2.725c1.413 0 2.503.486 3.271 1.46.769.973 1.153 2.332 1.153 4.077 0 1.77-.39 3.14-1.172 4.106-.781.967-1.865 1.45-3.252 1.45-.723 0-1.367-.13-1.934-.39a3.384 3.384 0 0 1-1.386-1.162h-.137a48.21 48.21 0 0 1-.361 1.357h-1.26V65.805h1.758v3.691c0 .736-.033 1.471-.098 2.207h.098c.722-1.068 1.83-1.601 3.32-1.601zm-.293 1.455c-1.08 0-1.855.306-2.324.918-.469.612-.703 1.647-.703 3.105v.078c0 1.465.239 2.512.717 3.14.479.628 1.262.942 2.35.942.963 0 1.68-.353 2.152-1.06.472-.706.708-1.726.708-3.06 0-1.355-.237-2.37-.712-3.048-.476-.677-1.205-1.015-2.188-1.015zM254.527 81h-1.757V70.277h1.757V81zm-1.894-13.623c0-.39.1-.674.298-.85.198-.175.444-.263.737-.263.273 0 .513.088.718.263.205.176.307.46.307.85 0 .384-.102.667-.307.85a1.047 1.047 0 0 1-.718.273 1.05 1.05 0 0 1-.737-.273c-.199-.183-.298-.466-.298-.85zM259.683 81h-1.757V65.805h1.758V81zm5.157 0h-1.758V70.277h1.758V81zm-1.895-13.623c0-.39.1-.674.298-.85.199-.175.444-.263.737-.263.274 0 .513.088.718.263.205.176.308.46.308.85 0 .384-.103.667-.308.85a1.047 1.047 0 0 1-.718.273 1.05 1.05 0 0 1-.737-.273c-.198-.183-.298-.466-.298-.85zm8.877 12.383c.228 0 .495-.023.801-.069.306-.045.537-.097.693-.156v1.348c-.162.071-.415.141-.756.21a5.29 5.29 0 0 1-1.04.102c-2.097 0-3.145-1.103-3.145-3.31v-6.24h-1.514v-.84l1.534-.703.703-2.286h1.045v2.461h3.095v1.368h-3.095v6.19c0 .62.148 1.095.444 1.427.296.332.708.498 1.235.498zm1.953-9.483h1.885l2.315 6.104c.488 1.328.787 2.301.898 2.92h.078c.059-.241.192-.692.4-1.353.209-.66.385-1.19.528-1.587l2.178-6.084h1.894l-4.619 12.207c-.45 1.185-.983 2.035-1.602 2.55-.618.514-1.383.77-2.294.77-.489 0-.974-.055-1.456-.165v-1.397c.326.078.717.117 1.172.117.56 0 1.035-.154 1.426-.463.39-.31.71-.787.957-1.431l.557-1.426-4.317-10.762zM129.957 111h-5.156v-1.035l1.68-.381V98.158l-1.68-.4v-1.035h5.156v1.035l-1.68.4v11.426l1.68.38V111zm9.824 0v-6.855c0-.873-.193-1.522-.58-1.949-.388-.426-.995-.64-1.822-.64-1.1 0-1.9.305-2.398.914-.498.608-.747 1.6-.747 2.973V111h-1.757v-10.723h1.416l.263 1.465h.098a3.31 3.31 0 0 1 1.396-1.225 4.492 4.492 0 0 1 1.983-.435c1.315 0 2.291.319 2.93.957.638.638.957 1.63.957 2.979V111h-1.739zm6.817 0h-1.758v-10.723h1.758V111zm-1.895-13.623c0-.39.1-.674.298-.85.199-.175.444-.263.737-.263.274 0 .513.088.718.263.205.176.308.46.308.85 0 .384-.103.667-.308.85a1.047 1.047 0 0 1-.718.273 1.05 1.05 0 0 1-.737-.273c-.199-.183-.298-.466-.298-.85zm8.877 12.383c.228 0 .495-.023.8-.069.307-.045.538-.097.694-.156v1.348c-.163.071-.415.141-.757.21a5.29 5.29 0 0 1-1.04.102c-2.096 0-3.144-1.103-3.144-3.31v-6.24h-1.514v-.84l1.533-.703.703-2.286h1.045v2.461h3.096v1.368H151.9v6.19c0 .62.149 1.095.445 1.427.296.332.708.498 1.235.498zm5.39 1.24h-1.757v-10.723h1.758V111zm-1.894-13.623c0-.39.1-.674.298-.85.199-.175.444-.263.737-.263.274 0 .513.088.718.263.205.176.308.46.308.85 0 .384-.103.667-.308.85a1.047 1.047 0 0 1-.718.273 1.05 1.05 0 0 1-.737-.273c-.199-.183-.298-.466-.298-.85zM168.99 111l-.342-1.523h-.078c-.534.67-1.066 1.124-1.596 1.362-.531.237-1.2.356-2.007.356-1.055 0-1.882-.276-2.48-.83-.6-.553-.9-1.334-.9-2.344 0-2.174 1.716-3.313 5.147-3.417l1.817-.069v-.635c0-.813-.176-1.414-.528-1.801-.351-.388-.914-.581-1.689-.581-.566 0-1.102.084-1.606.253-.505.17-.979.359-1.421.567l-.537-1.318a7.958 7.958 0 0 1 1.767-.674 7.642 7.642 0 0 1 1.895-.244c1.295 0 2.259.286 2.89.859.632.573.948 1.484.948 2.734V111h-1.28zm-3.623-1.22c.983 0 1.756-.266 2.32-.797.563-.53.844-1.284.844-2.26v-.967l-1.582.068c-1.23.046-2.127.241-2.69.586-.563.345-.845.889-.845 1.631 0 .56.171.99.513 1.29.342.299.822.448 1.44.448zm11.807-.02c.228 0 .495-.023.8-.069.307-.045.538-.097.694-.156v1.348c-.163.071-.415.141-.757.21a5.29 5.29 0 0 1-1.04.102c-2.096 0-3.144-1.103-3.144-3.31v-6.24h-1.514v-.84l1.533-.703.703-2.286h1.045v2.461h3.096v1.368h-3.096v6.19c0 .62.148 1.095.444 1.427.297.332.708.498 1.236.498zm5.39 1.24h-1.757v-10.723h1.757V111zm-1.894-13.623c0-.39.1-.674.298-.85.198-.175.444-.263.737-.263.274 0 .513.088.718.263.205.176.307.46.307.85 0 .384-.102.667-.307.85a1.047 1.047 0 0 1-.718.273 1.05 1.05 0 0 1-.737-.273c-.199-.183-.298-.466-.298-.85zM188.326 111l-4.062-10.723h1.884l2.276 6.319c.449 1.27.736 2.216.86 2.842h.077a11.424 11.424 0 0 1 .176-.64c.04-.127.28-.861.723-2.202l2.285-6.319h1.875L190.348 111h-2.022zm12.354.195c-1.608 0-2.87-.486-3.784-1.46-.915-.973-1.373-2.312-1.373-4.018 0-1.719.427-3.088 1.28-4.107.853-1.019 2.005-1.528 3.457-1.528 1.347 0 2.422.435 3.222 1.304.801.869 1.202 2.046 1.202 3.53v1.064h-7.344c.032 1.218.342 2.142.928 2.774.586.631 1.416.947 2.49.947a8.46 8.46 0 0 0 1.63-.151c.515-.101 1.117-.298 1.807-.591v1.543a8.506 8.506 0 0 1-1.67.537c-.52.104-1.136.156-1.845.156zm-.44-9.677c-.84 0-1.504.27-1.992.81s-.778 1.292-.87 2.256h5.46c-.013-1.003-.244-1.764-.693-2.285-.45-.521-1.084-.781-1.905-.781zM260.541 111h-1.816l-2.784-9.355c-.41-1.394-.65-2.334-.722-2.823-.104.749-.332 1.71-.684 2.881L251.84 111h-1.817l-3.779-14.277h1.875l2.217 8.72c.3 1.14.527 2.272.684 3.399.143-1.068.397-2.237.761-3.506l2.52-8.613h1.855l2.627 8.681c.339 1.127.6 2.272.781 3.438.105-.899.336-2.038.694-3.418l2.207-8.701h1.875L260.54 111zm14.57 0l-1.718-4.424h-5.664l-1.7 4.424h-1.816l5.576-14.336h1.621L276.977 111h-1.866zm-2.256-6.016l-1.601-4.326-.684-2.138a29.14 29.14 0 0 1-.615 2.138l-1.621 4.326h4.521zM282.953 111h-5.156v-1.035l1.68-.381V98.158l-1.68-.4v-1.035h5.156v1.035l-1.68.4v11.426l1.68.38V111z" fill="#015A9C" fill-rule="nonzero"/><g fill="#015A9C" fill-rule="nonzero"><path d="M44.76 67l7.79 26.78L60.343 67h21.122v2.662l-7.953 13.852c2.794.907 4.907 2.555 6.34 4.944C81.282 90.85 82 93.654 82 96.877c0 3.985-1.048 7.335-3.144 10.05-2.095 2.715-4.81 4.073-8.14 4.073-2.508 0-4.693-.806-6.554-2.417-1.863-1.611-3.241-3.793-4.137-6.546l4.405-1.846c.645 1.666 1.496 2.979 2.552 3.938 1.057.96 2.302 1.438 3.734 1.438 1.505 0 2.776-.85 3.815-2.552 1.04-1.703 1.559-3.747 1.559-6.14 0-2.643-.556-4.69-1.666-6.138-1.29-1.701-3.314-2.554-6.072-2.554h-2.149v-2.606l7.522-13.147h-9.08l-.517.889-11.043 37.678h-.537l-8.06-27.268-8.059 27.268h-.537L23 67h5.641l7.791 26.78 5.265-18.033L39.12 67h5.64zM110.988 67c-1.077 0-2.045.388-2.777 1.133-.778.79-1.211 1.81-1.211 2.866s.412 2.034 1.167 2.8c.767.779 1.755 1.201 2.822 1.201 1.044 0 2.056-.422 2.844-1.188C114.588 73.079 115 72.1 115 71a3.996 3.996 0 0 0-1.155-2.811 3.948 3.948 0 0 0-2.857-1.19zm3.478 4.034a3.32 3.32 0 0 1-1.01 2.41c-.69.668-1.545 1.023-2.49 1.023a3.407 3.407 0 0 1-2.421-1.033c-.656-.667-1.023-1.523-1.023-2.433 0-.911.378-1.8 1.056-2.489.633-.645 1.488-.988 2.42-.988.956 0 1.811.356 2.478 1.033.645.643.99 1.51.99 2.477zm-3.367-2.378h-1.71v4.533h.854v-1.933h.845l.923 1.933h.955l-1.012-2.066c.655-.134 1.033-.578 1.033-1.223 0-.822-.621-1.244-1.888-1.244zm-.156.555c.8 0 1.166.222 1.166.778 0 .533-.366.722-1.145.722h-.722v-1.5h.701zM105.137 67l.863 5.914-3.052 6.588s-1.172-2.795-3.118-4.342c-1.64-1.303-2.709-1.586-4.38-1.198-2.146.5-4.578 3.394-5.64 6.963-1.27 4.27-1.283 6.336-1.328 8.234-.071 3.042.354 4.841.354 4.841S86.982 90.132 87 84.467c.012-4.043.576-7.71 2.234-11.328 1.459-3.181 3.628-5.09 5.552-5.315 1.99-.232 3.563.85 4.778 2.02 1.277 1.23 2.566 3.918 2.566 3.918L105.137 67zM105.23 98.824s-1.338 2.567-2.172 3.556c-.834.99-2.326 2.732-4.168 3.603-1.843.872-2.809 1.036-4.63.849-1.82-.188-3.51-1.319-4.102-1.79-.593-.472-2.108-1.861-2.964-3.156C86.338 100.59 85 98 85 98s.746 2.596 1.213 3.698c.269.635 1.094 2.574 2.265 4.262 1.093 1.576 3.216 4.287 6.44 4.899 3.226.613 5.442-.942 5.99-1.319.549-.376 1.705-1.416 2.437-2.256.763-.877 1.486-1.995 1.886-2.666.293-.49.769-1.485.769-1.485l-.77-4.31z"/></g></g></svg>