<svg viewBox="0 0 490 378" xmlns="http://www.w3.org/2000/svg"><path d="m1.6 323.29c-2.14 9 5.52 22.76 15.47 22.67 25.06-.23 322.1 2.72 410.35 7.34 4.86.26 5.68-5.17 5.36-9.42 64.12 24 52-47.21 50.88-67.86s3.58-189.37-1-229.71c2.5-3.19 7.32-25.48-14.14-25.75-28.87-.87-57.73 1.26-86.6.39-24.92-.75-121.92-2.01-147.49-1.27-50.43 1.45-174.18-1.68-224.49 3.07-6.28.59-6 8.4-4.82 12.83.36 1.35.13 262.59 1.16 264.6q-1.95 11.63-4.68 23.11z" fill="#fff"/><path d="m482.18 43.2c0-3.64.5-7.3.26-10.92-.93-13.83-19.24-11-28.77-11.22-5.81-.13-56.86-.23-76.58-.23-31.84 0-344.82 0-352.09.17-5.53.15-12.47-.19-17.24 3.09s-3.42 8.1-3.61 13.27a.78.78 0 0 0 0 .22q-.02 21.84-.15 43.68c-.15 32.43-1.53 228.74-1.1 245.19.19 7-.64 16.06 6.92 19.36 5.85 2.54 13.49 2.56 19.73 2.87 8.33.41 36.93.19 43 .17l363.45-1.18c12.09 0 24.57.74 36.5-1 4.63-.68 9.45-2.08 10.59-7.17.94-4.19 1-9.08 1.12-13.37.01-1.51-1.89-262.96-2.03-282.93zm-1.5 293.64c-.86 4.47-2.71 6-6.55 6.83-7.63 1.65-15.91 1-23.66 1.17-5.87.1-57.09.32-76.83.39-31.73.1-336 1.22-344.09.83-6.36-.31-20 .39-22.82-6.74-1.64-4.2-1.19-9.59-1.23-14.14 0-6.36.33-284.12.34-287.67a.83.83 0 0 0 0-.15c.25-5.2-1.21-10 4.69-12.55 3.84-1.67 8.38-1.57 12.51-1.66 7.67-.16 36.67 0 42.28 0q35.36 0 70.73.06l200 .06h78.07c12.89 0 46.62.4 50.6.49 4.17.1 9.47-.22 12.79 2.79 3.83 3.48 2.29 10.05 2.22 14.64 0 1.51.57 88 .76 117.56q.31 50.35.65 100.69.19 31.4.39 62.79c-.01 1.3-.53 12.77-.85 14.61z" fill="#1e1e1e"/><path d="m125.83 21c-1.4 27.58-1 55.34-1.17 82.94q-.27 42.63-.18 85.27.09 66 .7 132c.08 8.4.25 16.8.35 25.19a1.28 1.28 0 0 0 2.55 0c-.3-24.38-.42-48.79-.6-73.18q-.58-79.29-.37-158.59c.11-31.18 1.15-62.43.67-93.61a1 1 0 0 0 -2 0z" fill="#1e1e1e"/><path d="m245.74 23c-.74 27.42 0 54.94 0 82.38q0 42.68-.17 85.34-.23 65.73-.7 131.46c-.06 8.41 0 16.83-.1 25.24a1.28 1.28 0 0 0 2.55 0c.19-24.24.41-48.48.53-72.73q.39-78.93.4-157.86c0-31.24.69-62.62-.54-93.83a1 1 0 0 0 -1.95 0z" fill="#1e1e1e"/><path d="m364 22c-.74 27.62 0 55.33 0 83q0 42.66-.17 85.32-.22 66-.7 132.09c-.06 8.41 0 16.82-.1 25.22a1.28 1.28 0 0 0 2.55 0q.3-36.62.53-73.25.39-79.35.4-158.7c0-31.17.68-62.49-.54-93.64a1 1 0 0 0 -2 0z" fill="#1e1e1e"/><path d="m481.36 129.92c-30.52-.7-61.08-.55-91.61-.57q-60.48 0-121 .12-61.53.14-123.06.38-49 .18-97.93.4l-31.14.15c-4.52 0-10-.79-14.43.08a3.62 3.62 0 0 1 -.66 0 1.25 1.25 0 0 0 0 2.5q18.5-.11 37-.18 46.39-.23 92.8-.41 60.69-.26 121.39-.42 61.37-.18 122.73-.22c32.27 0 64.56.27 96.84.14l9-.06a1 1 0 0 0 0-1.92z" fill="#1e1e1e"/><path d="m482.42 238.78c-31.9.44-63.8.95-95.7 1.18q-60.51.45-121 .38t-120.79-.24q-47.52-.18-95-.47l-29.76-.19c-4.32 0-9.64-.91-13.92-.09a4.44 4.44 0 0 1 -.63 0 1.25 1.25 0 0 0 0 2.5q17.87.15 35.72.25 45.08.27 90.14.45 59.51.22 119 .26 61.17 0 122.35-.33c33.25-.21 66.54-.3 99.77-1.38 3.28-.11 6.57-.26 9.85-.39a1 1 0 0 0 0-1.92z" fill="#1e1e1e"/><path d="m487.63 39c-3.18-7.11-12.71 3.8-10.41 9 .25.57-1.2 46.94.36 65.51.88 10.44-6.23 11.58-7.56 11.84-13 2.54-417.43 3-445.16 2.12-5.84-.18-2.31 11.4 4.19 11.6 25.76.8 43 .1 68.78.84 13.1.37 49.26-.64 54.26-.55 27.08.52 248.65 2 275.74 1.44 14.42-.28 26-.81 40.26-3.23 7.82-1.33 15.31-3.11 18.52-11.38 4.45-10.44 2.07-84.78 1.02-87.19z" opacity=".2"/><path d="m8.66 36.29c.27-3.18 3.12-10.48 13.24-10.37 1.81-.45 446.78-.6 448.2 1 9.18 2.26 7.79 12.57 7.7 16.31-.06 2.42.23 67 0 71.87-.1 2.19 1.05 10.21-13.39 10.31-5.23.16-435.6 4.69-446.32.44-8.93-3.55-8.89-9.07-9-13s-.7-73.38-.43-76.56z" fill="#f78100" opacity=".85"/><path d="m471.68 29.09c-23.76-1.63-449.55-3.45-452.79-1.7-6.48 3.5-8.91 11.19-9.37 18-.52 7.69.91 66.77.93 72 0 3.3 2.73 4.55 5.51 3.18 3.13-1.55 5.31-5.78 5.3-9.19 0-6.37-.93-30.18-.94-34.9 0-7 0-36.38 0-36.68 2.73 0 16.4.12 19.71.2l25.63.65c30.42.73 60.87 1.2 91.3.24 10.37-.33 163.54-1 229.74-.12 26.57.35 53.31.19 79.83 2 5.81.44 11.73-13.23 5.15-13.68zm-461.55 71.38v.33q.02-.15 0-.33zm0 .46c0 .09 0 .19.05.29.11.41.12 1 0-.29zm10.41-9.33c0-.27 0-.42 0 0z" fill="#fff" opacity=".2"/><path d="m479.39 90.7-.57-33.9c-.05-3.33-.09-6.64 0-10 .11-4.75 1.3-14.8-2.89-18.26-5.23-4.32-16.11-2.82-22.21-3.06-1.17-.05-2.34-.1-3.51-.11-24.25-.29-48.52-.05-72.77-.07l-139.71-.16-136.73-.14c-21.18 0-42.4 0-63.62 0-7.06 0-15.74-.63-22.52 1.53-8.61 2.76-6.71 12.31-6.86 19.32a1 1 0 0 0 0 .15c0 18.15-.12 36.3-.17 54.44a147.33 147.33 0 0 0 .54 15c.86 8.53 6.36 10.89 14.19 12.11a65.5 65.5 0 0 0 15.07.39c4.4-.31 8.44.15 12.81.36h1.42c25.86.53 51.78-.1 77.64-.14q71-.13 142-.52l130.6-.5 37.93-.16h7.93c2.86 0 5.73-.15 8.59-.24 6.28-.19 17.38 1.24 21.07-5.51 1.87-3.42 1.37-8 1.58-11.76.14-2.55.34-5.11.36-7.66.04-3.7-.1-7.41-.17-11.11zm-2.46 19.51a50.34 50.34 0 0 1 -.35 6.51c-1.07 5.66-4.4 6.92-9.47 7.38-6.84.63-13.8.61-20.67.63l-26.86.1-115.68.44-142 .58q-49.48.21-99 .54c-9.25 0-18.67-.59-27.84 0-6 .35-12.36.08-18.13-1.73-7.2-2.27-6.93-9-7.22-15.24-.16-3.57-.29-7.1-.29-10.67v-32.15c0-6.86 0-13.72 0-20.58a.5.5 0 0 0 0-.13c.25-6.4-1.69-15.54 6.5-17.74 5.76-1.57 12.83-1.15 18.72-1.25h3.53 7.67l35.34.1 123.27.2 141.15.2 94.66.15h9c7.09 0 15.33-.75 22.06 1.42 4.82 1.56 4.87 5.28 5.2 9.85.29 3.9 0 7.79 0 11.69 0 2.82.09 5.63.14 8.44l.51 33.39c.05 3.22.18 6.45.15 9.67-.02 2.75-.25 5.48-.39 8.2z" fill="#f78100"/><g fill="#1e1e1e"><path d="m218.63 79a4.63 4.63 0 0 0 -2.63-3.72c-1.49-.57-3.5.17-4.8 1.42a15.12 15.12 0 0 0 -.52-5.69c-.28-.75-1.64-.72-1.52.21.63 4.83.25 10 .12 14.81a1 1 0 0 0 2 0q-.09-3.61-.07-7.23a15.57 15.57 0 0 1 1.79-1.35 2.17 2.17 0 0 1 2-.37c1.36.26 1.6 1.14 1.75 2.51.24 2.28.25 4.6.51 6.89a1.11 1.11 0 1 0 2.19-.3c-.45-2.39-.38-4.84-.82-7.18z"/><path d="m228.24 74.92c-2.47 0-5.51 2.63-6.11 5-1.39 5.52 6.16 10.74 10.16 6 .85-1-.65-2.46-1.43-1.44-2.31 3-6.73.39-7.05-2.83 2.8.88 6.45.25 9.2 0a1 1 0 0 0 1-1.25c-.56-2.75-2.73-5.53-5.77-5.48zm-1.07 5.18a17.73 17.73 0 0 0 -3.29.33 0 0 0 0 1 0 0 5.87 5.87 0 0 1 4.35-3.52c1.7 0 2.88 1.41 3.47 2.9-1.5.1-3.01.19-4.53.29z"/><path d="m246 80.28c0-1.44 0-2.91-1-4-1.51-1.61-6.19-1.67-7.15.5a.4.4 0 0 0 .15.56c2.11.91 5.17-1.62 6.13 1.5a8 8 0 0 1 .31 1.75 5.19 5.19 0 0 0 -3.22-1.31 4.41 4.41 0 0 0 -4.38 3.07 3.71 3.71 0 0 0 2 4.4 5.51 5.51 0 0 0 5.36-.62c0 .34-.06.66-.08 1-.09 1.28 2.07 1.29 2 0-.12-2.31-.12-4.58-.12-6.85zm-2 4.51a8.71 8.71 0 0 1 -3.66.36 1.81 1.81 0 0 1 -1.38-2.68 2.87 2.87 0 0 1 3.26-1.17 11.63 11.63 0 0 1 2.34 1.09c0 .81-.08 1.62-.16 2.42a.54.54 0 0 0 -.4-.02z"/><path d="m258.64 71.21a42.2 42.2 0 0 0 -.31 5.44 5.3 5.3 0 0 0 -4.56-1.35c-2.84.59-4.35 3.28-4.31 6a5.82 5.82 0 0 0 4.54 5.75 6 6 0 0 0 4.67-1.05.76.76 0 0 1 0 .15 1 1 0 0 0 2 0c.11-4.88.4-10.33-.49-15.13-.18-.95-1.44-.59-1.54.19zm-3.47 14a4.06 4.06 0 0 1 -4-4.16c-.08-2.24 1.2-4.37 3.67-4.35 1.54 0 2.44 1 3.52 1.79 0 1.59.11 3.19.19 4.76a4.48 4.48 0 0 1 -3.38 1.92z"/><path d="m269.46 75.06a6.45 6.45 0 0 0 -5.93 4.26c-1.8 5.35 5.85 10.53 10 6.66.88-.81-.4-2-1.29-1.29-2.38 2-6.29-.07-7-2.82 2.8.4 5.8.08 8.6.09a1 1 0 0 0 .95-1.24c-.51-2.54-2.44-5.59-5.33-5.66zm-4.32 5.38a3.52 3.52 0 0 1 .29-1c.69-1.44 2.68-2.83 4.36-2.41a4.44 4.44 0 0 1 2.72 2.97 31.78 31.78 0 0 0 -7.37.44z"/><path d="m284.49 75.45a3.34 3.34 0 0 0 -3.58.51 4.23 4.23 0 0 0 -1.17 1.48 1.57 1.57 0 0 0 -.09.23 2.2 2.2 0 0 0 -1.06-1.79.15.15 0 0 0 -.17 0c-1.07 1-.42 2.72-.32 4.07.16 2.13.16 4.26.15 6.4a.89.89 0 0 0 1.77 0 53.23 53.23 0 0 0 -.22-6.8c0-.26 0-.55-.05-.84a8.49 8.49 0 0 1 1.84-1.32 4 4 0 0 1 2.41-.29.89.89 0 0 0 .49-1.65z"/><path d="m281.52 186.93a6.29 6.29 0 0 0 -5.43 3.8 6.38 6.38 0 0 0 -.43 1.72c-.33.27-.42.85 0 1 .35 4 5.27 6.61 9.22 4.5 1-.55.09-2.17-.92-1.57a4.39 4.39 0 0 1 -6.63-2.78c1 0 2-.12 3-.17 1.7-.08 3.4-.05 5.1-.17a.91.91 0 0 0 .85-1.12c-.52-2.51-1.78-5.22-4.76-5.21zm-4.19 5a4.23 4.23 0 0 1 3.09-3.23c2.18-.55 3.52.91 4 2.8a25 25 0 0 0 -7.09.39z"/><path d="m304.53 186.81c-1.9-.84-4.82.42-6.27 2.19a2.65 2.65 0 0 0 -1.05-1.56c-1.57-1-4.16.11-5.62 1.69a2.33 2.33 0 0 0 -.95-1.74.2.2 0 0 0 -.22 0c-1.14 1-.64 2.79-.62 4.2 0 2.17.1 4.35-.05 6.52-.08 1.18 1.85 1.2 1.86 0 0-2.31.15-4.62 0-6.93v-.18c.56-.43 1-.95 1.64-1.35a4.08 4.08 0 0 1 1.55-.79c1.23-.16 1.94.77 2.05 2a51 51 0 0 1 .15 7.14c-.07 1.3 2 1.3 2 0a44.87 44.87 0 0 0 -.36-6.85c0-.15 0-.31-.05-.48a12.36 12.36 0 0 1 1.87-1.51c.79-.45 2.84-1.31 3.55-.39.56.73.32 3 .33 3.93a20.85 20.85 0 0 1 -.38 5 1.14 1.14 0 1 0 2.24.3 57 57 0 0 0 -.11-7.73c-.19-1.27-.25-2.88-1.56-3.46z"/><path d="m317 187.08a5.41 5.41 0 0 0 -5.27 2.62 4.52 4.52 0 0 0 -1-2.3.1.1 0 0 0 -.16 0c-1.24 1.8-.65 4.26-.62 6.37 0 2.87.06 5.74.08 8.61a1.08 1.08 0 0 0 2.16 0c0-1.33 0-2.65-.06-4a5.62 5.62 0 0 0 5 .66 6.66 6.66 0 0 0 4.16-6.43c-.03-2.47-1.64-5.14-4.29-5.53zm2.17 5.87c-.24 3.66-4.18 5.85-6.87 2.9a.83.83 0 0 0 -.27-.19c0-.82-.06-1.63-.1-2.45s0-1.58-.08-2.37a6.7 6.7 0 0 1 3.33-2c2.65-.59 4.14 1.79 3.98 4.16z"/><path d="m327.82 196.81c-1.27.86-1.35-4.17-1.36-4.47 0-1-.06-2-.1-3a4.59 4.59 0 0 0 1.17 0c1.53-.26.72-2.9-.88-2.1a2.12 2.12 0 0 1 -.36.1c0-.39 0-.79-.06-1.18a8.66 8.66 0 0 0 -.1-1.25.77.77 0 0 0 -.66-.57.43.43 0 0 0 0-.07v-.16c0-.25-.3-.26-.41-.11a5.3 5.3 0 0 0 -.86 3.31 3.05 3.05 0 0 0 -1.89.34.39.39 0 0 0 -.08.61 3.34 3.34 0 0 0 2 .79c0 .42.06.84.07 1.23a30.72 30.72 0 0 0 .31 6.22c.47 1.93 3 4.11 4.37 1.56.51-.76-.35-1.8-1.16-1.25z"/><path d="m340.42 187.43c0-.27-.38-.28-.55-.14-2.36 1.85-3 5.51-4 8.78-1.38-2.75-2.57-5.61-4.11-8.27a.84.84 0 0 0 -.75-.43c-.1 0-.34 0-.44.08l-.18.17a.86.86 0 0 0 -.23.86 84.15 84.15 0 0 0 4.25 9.74 1.06 1.06 0 0 0 .44.47 6.31 6.31 0 0 1 -3.66 3.48c-1.21.4-.71 2.29.53 1.93 2.77-.81 4-3 5.07-5.49.85-2.06 1.67-4.13 2.48-6.2.66-1.77 1.42-3.1 1.15-4.98z"/></g><path d="m253.87 149c0-3.3-2.71-4.57-5.51-3.19-3.11 1.54-6.14 5.75-6.1 9.15.56 46.05-.35 58.6-.35 72.6 0 3.91-6.68 8-8 8-10.86.6-194.22 2.44-206.91 1.55-5.82-.38-11.73 12.79-5.16 13.22 11.68.78 190.89-1.62 202.36-2.12 9.27-.4 18.07-.67 24.31-8.62 4.69-6 3.33-14.69 3.51-22 .23-7.65 2.16-43.54 1.85-68.59z" opacity=".2"/><path d="m242 228.4c-.27 3.18-2.1 7.86-11.05 9.12-.84.12-215-1.61-217.07-1.83a5.31 5.31 0 0 1 -4.68-5.8c.05-2.43.17-78 .39-82.86.1-2.19 1-10.8 13.39-10.31 5.23-.16 200.59-1.53 203.62-1.53 16.89 0 15.85 10.16 16 14.14s-.36 75.89-.6 79.07z" fill="#1ab3e2" opacity=".85"/><path d="m231.28 137.51c-42.74-3.7-208.87-2.49-213.25.26-5 3.13-7.27 8.9-7.57 14.57-.51 9.64-.1 61.63-.12 77.91 0 3.3 2.75 4.55 5.52 3.18 3.14-1.56 5.3-5.77 5.3-9.19 0-14.06.51-70.24.47-74.68l13.62.31c39.66.88 79.23-1.38 118.87-1.59q36.06-.19 72 2.95c5.81.5 11.77-13.15 5.16-13.72z" fill="#fff" opacity=".2"/><path d="m241.3 139.78c-5-7.27-19.14-6.34-26.65-5.88-7.33.44-14.71-.31-22.08-.24q-68.19.61-136.36 1.28c-5.47.05-10.94.07-16.41.16-6.77.11-13.84-.12-20.55.79-3.14.43-6.47 1.34-8.46 4-2.82 3.79-2 10-2.18 14.45-.87 19.43-.24 38.91-.45 58.35-.05 4.25-.28 8.49-.1 12.74.11 2.62-.12 6.95 1.5 9.21 1.3 1.83 4 2 6 2.24 5.52.57 11.16.5 16.7.72 4.4.18 8.79.16 13.2.17l64.42.17 75 .2h23.52c8.42 0 17.14.86 25.44-.49 10.77-1.76 9.15-11.36 9.32-19.87a1 1 0 0 0 0-.17c.19-18.68.81-37.38.76-56.06-.06-6.28 1.21-16.16-2.62-21.77zm-7.86 96c-5.77 1-12 .54-17.84.47-1.36 0-2.72 0-4.08 0l-17.78-.07-67.45-.23-68.09-.22-19.2-.08c-1.07 0-2.15 0-3.22 0-4.14-.08-8.29-.33-12.43-.5-3.74-.16-10.73.76-12.47-3-1.36-2.94-.79-8.06-.77-11.27 0-2.93.16-5.85.19-8.77 0-3.72 0-7.45 0-11.17q.06-17.1.14-34.2c0-4.14.16-8.24.35-12.38.11-2.42 0-4.92.33-7.32.67-5.2 2.3-7.73 7.17-8.73 6-1.22 12.71-.68 18.83-.86 4-.12 8-.12 12.05-.15q65.54-.61 131.07-1.27l18.38-.19c2.39 0 4.69.39 7.09.51 5.46.27 10.89-.71 16.35-.56 6.79.2 16.74.64 18.92 8.41 1.64 5.85 1 12.9 1 19l.02 12.87q-.12 17.34-.23 34.68c0 2.32 0 4.64-.05 6.95a.7.7 0 0 0 0 .14c-.38 7.5 1.55 16.24-8.28 17.97z" fill="#00a6e8"/><path d="m118.55 190.62a3.46 3.46 0 0 0 -2.11-3.19 5.67 5.67 0 0 0 -5.68 1.48 2.23 2.23 0 0 0 -.91-1.16c-1.71-1.09-4.42.14-6.12 1.72 0-.31 0-.62-.08-.92a.82.82 0 0 0 -1.64 0 57.37 57.37 0 0 0 .55 10.32c.16.85 1.34.55 1.41-.19a42.55 42.55 0 0 0 -.09-7.48 16.89 16.89 0 0 1 1.59-1.06 4.38 4.38 0 0 1 1.77-.78c.43-.22.83-.09 1.19.4q1.26.17.87 1.26a24.26 24.26 0 0 1 -.13 3.29c0 1.34 0 2.69.1 4s2 1.24 1.94 0a60.39 60.39 0 0 1 -.24-6.59c0-.13 0-.27 0-.4.53-.44.88-1 1.46-1.47 1.21-.9 3.47-1.06 4.08.5a10.53 10.53 0 0 1 .09 3.32c0 1.39 0 2.77-.05 4.16s2.21 1.36 2.13 0c-.13-2.37.14-4.83-.13-7.21z" fill="#1e1e1e"/><path d="m130.16 188.36c-1.82-1.62-6.48-1.08-7.76 1a.69.69 0 0 0 .77 1 10.44 10.44 0 0 1 3.11-.77c1.4-.06 2.7-.1 2.93 1.5.07.49.11 1 .14 1.5-3-2-8.93-1-8 3.31a4.78 4.78 0 0 0 5 3.78 7.79 7.79 0 0 0 3-1 1 1 0 0 0 1.89 0c0-2.17 0-4.34-.1-6.51.06-1.3.08-2.87-.98-3.81zm-3.87 9.29a2.36 2.36 0 0 1 -2.46-1.21 1.78 1.78 0 0 1 -.32-1.95c1.15-2 4.07-.75 5.92 0v1.79c-.53.8-2.37 1.28-3.14 1.37z" fill="#1e1e1e"/><path d="m136.61 188a.48.48 0 0 0 -.82 0c-.88 1.41-.51 3.16-.48 4.77.05 2-.11 4.09 0 6.11.06 1.05 1.69 1.41 1.93.27a24.9 24.9 0 0 0 .25-6c-.05-1.65.18-3.75-.88-5.15z" fill="#1e1e1e"/><path d="m136.33 185.19h.07a.94.94 0 0 0 .66-1c0-.08.05-.16.07-.25a.74.74 0 0 0 -.52-.91 1.34 1.34 0 0 0 -1.29.29 1.13 1.13 0 0 0 -.11 1.41 1 1 0 0 0 1.12.46z" fill="#1e1e1e"/><path d="m149 187.76c-1.64-1.19-4.53-.38-6 1.18 0-.25 0-.5-.06-.75-.1-.81-1.45-1.21-1.59-.21a44.18 44.18 0 0 0 -.26 5.4 29.72 29.72 0 0 0 .07 5.42.9.9 0 0 0 1.72 0 28 28 0 0 0 .18-5c0-1.05 0-2.1 0-3.16 1.9-.8 5-3.68 5.72.06a22 22 0 0 1 -.28 7.23 1.21 1.21 0 1 0 2.38.32c.27-2.94.87-8.47-1.88-10.49z" fill="#1e1e1e"/><path d="m479.18 152.59c-1.48 14.62-1.22 74.4-1.1 78.57 0 .79-1.65 4.79-6.84 5-5 .22-76.23.94-87.76.39-5.83-.28-9.69 13.41-3.16 13.72 11.17.54 80.23-.42 95.83-.85 7.61-.2 13.33-7.64 13.15-15.05-.09-3.52-.61-18.28-.54-29.63.29-45.08.87-54.12.9-54.49v-.05c0-.07 0-.16 0-.3 1.02-9.74-9.82-3.82-10.48 2.69z" opacity=".2"/><path d="m477.8 224.78c-.43 2 1.47 9.58-3.3 10.58-1.18.25-98.09 1.85-99.3 1.22-4.4-2.26-6.41-7.8-6.27-10.13.09-1.51.82-81.65 1.16-84.69.16-1.37 1.74-4.95 3.78-6.09 3.74-2.1 97.14-.51 99.22.42a8.26 8.26 0 0 1 4.37 6.12c.22 2.43.77 80.58.34 82.57z" fill="#e85858" opacity=".85"/><path d="m474.35 138.38c-13.33-4.18-93.8-5-98.76-2.16a12.87 12.87 0 0 0 -6.33 9.43c-.12 1.35 1.4 70.29 1.19 82.35-.06 3.32 2.78 4.54 5.51 3.18 3.18-1.57 5.24-5.75 5.3-9.18.23-12.78-.83-25.6-1.17-38.37-.21-7.94.08-31.4.36-35.17 0 0 0-.08 0-.12 1.2 0 10.82.14 14.43.13 7.95 0 15.9-.11 23.85-.16 6.83-.05 13.67-.09 20.5.09 9.23.24 18.72.18 27.61 3 6.05 1.87 12.93-11.32 7.51-13.02z" fill="#fff" opacity=".2"/><path d="m478.72 213.79c.06-7.91.26-49 0-61.65-.07-3.92.37-8.08-.87-11.85-1.51-4.59-4.28-5.68-8.86-5.82-5.95-.19-11.88-.46-17.84-.53-16.77-.21-58.17-.18-62.1 0-4.45.2-18.92-2.32-20.22 4.61-.68 3.64-.05 8.46-.11 12.17-.12 7.46-.6 54.05-.77 69.87-.05 3.78-.72 8.49.88 12 2.77 6.08 12.58 5.33 18.29 5.34 17.37 0 34.73-.24 52.1-.45 6.28-.07 12.57-.09 18.85-.25 4.13-.11 8.25-.38 12.37-.67 2.5-.18 5.44 0 7.06-2.26 2-2.78.72-6.51 1-9.62a.53.53 0 0 0 0-.13c.5-3.5.2-7.27.22-10.76zm-5.62 20.69c-3.77 1-61.15 1.25-77.71 1.33-6.08 0-12.18.28-18.21-.71-5.16-.85-7.14-3.11-7.2-8.59 0-1.35 0-2.71.06-4.06q.25-20.1.49-40.2c.15-12.78.2-25.57.6-38.35a24 24 0 0 1 .07-3.18c1.16-6.62 11.38-4.2 16.4-4.41 3-.14 6.15-.23 9.25-.24q21.66 0 43.31.05c6.58 0 13.16.07 19.73.24 1.78 0 3.55.15 5.32.24 4.51.23 9.13-.56 10.71 4.92.84 2.92.46 6.09.53 9.1.27 11.8.68 52.37.73 60.86 0 4.11.58 8.78 0 12.86a.39.39 0 0 0 -.05.13c-.59 3.97 1.16 8.66-4.03 10.01z" fill="#c93d3d"/><path d="m389.88 192.41c-1.06-.23-3.69-.54-2.49-2.8.47-.89 1.81-1.09 2.71-1.05 1.36.05 1.91 1.14 3.13 1.26a.51.51 0 0 0 .42-.24l.15-.26a.94.94 0 0 0 0-1c-2-2.88-8.07-2.41-8.24 1.65-.08 1.86 1.26 3.07 2.88 3.66s5.37 1.07 3.13 3.81c-1.45 1.78-4 .89-5.2-.66-.59-.76-1.8.37-1.08 1.08 2.43 2.42 9.33 2.75 9-2.14-.17-2.29-2.55-2.91-4.41-3.31z" fill="#1e1e1e"/><path d="m397.74 188.05a22.07 22.07 0 0 0 -.06 5.14v5.81a.93.93 0 0 0 1.86 0c.3-3.25.67-7.89-.61-10.95-.23-.49-1.05-.65-1.19 0z" fill="#1e1e1e"/><path d="m398.21 183.37a1.65 1.65 0 0 0 -.64 1.23 1.06 1.06 0 0 0 .92 1.05 1.08 1.08 0 0 0 1.17-.76 3.74 3.74 0 0 0 .12-.45 1 1 0 0 0 .06-.39 1 1 0 0 0 -1.63-.68z" fill="#1e1e1e"/><path d="m413.34 198.27a1.11 1.11 0 0 0 -.46-.33c.67.05.47-6.63.48-7.46a40.19 40.19 0 0 0 -.3-7.11.64.64 0 0 0 -1.23 0 29.81 29.81 0 0 0 -.38 5.43 5.42 5.42 0 0 0 -4.3-1.64c-2.49.45-4 3.2-4.27 5.49s.46 6.07 3 7.12c1.74.74 4-.57 5.4-2.07a4.71 4.71 0 0 0 .42 1.65 1 1 0 0 0 1.52.19l.08-.09a.91.91 0 0 0 .14-1.09zm-5.2-.52c-3.16 1.27-3.95-3.5-3.61-5.29s1.9-4.05 4.06-3.31a16.47 16.47 0 0 1 2.88 1.86v1.2c0 .89-.14 2-.21 3.14-1.17.58-1.93 1.92-3.12 2.4z" fill="#1e1e1e"/><path d="m422.5 187.44a5.44 5.44 0 0 0 -5.73 3.41 7.62 7.62 0 0 0 2.07 7.41c2.24 2 5.68 1.35 8 0 1.14-.66.08-2.46-1-1.75-1.93 1.24-4.9 2.09-6.49-.17a6.63 6.63 0 0 1 -1-2.26c2.77.58 5.9.32 8.67.23.55 0 1.17-.61.92-1.2-1.14-2.81-2.07-5.44-5.44-5.67zm-4.27 5.08a3.9 3.9 0 0 1 .2-1.09c.62-1.7 2.4-2.25 4.07-2.07s2.49 1.6 3.12 3a64.93 64.93 0 0 0 -7.39.16z" fill="#1e1e1e"/><path d="m438 187.5a6.27 6.27 0 0 0 -4.93 2.05c0-2.07 0-4.24-1-6.06a.25.25 0 0 0 -.45.06c-1 2.32-.55 5.16-.51 7.64s-.2 5.26.33 7.79a.82.82 0 0 0 1.57 0c.07-.37.13-.75.17-1.13a4.72 4.72 0 0 0 6 .68 7.36 7.36 0 0 0 3-6.41c-.18-2.4-1.6-4.44-4.18-4.62zm.81 8.77a3.19 3.19 0 0 1 -2.93 1.17c-.92-.15-1.66-1.12-2.46-1.58h-.11c0-1.51-.1-3-.18-4.52a7.53 7.53 0 0 1 3.14-1.74c2.19-.48 3.79.57 3.89 2.84a5.69 5.69 0 0 1 -1.31 3.83z" fill="#1e1e1e"/><path d="m453.23 188.84c-1.59-2.12-5.39-1.19-7.23 0a.7.7 0 0 0 .54 1.28c1.09-.19 2.39-.81 3.51-.7 1.91.19 2.14 1.46 2.25 3.12v.17a5.94 5.94 0 0 0 -4.15-.92 3.55 3.55 0 0 0 -3.34 4c.29 4.18 4.8 4.52 7.7 2.7v.35c0 1.3 2.09 1.28 2 0-.14-2-.24-3.94-.36-5.91-.07-1.35-.06-2.93-.92-4.09zm-3.33 8.87c-1.69.42-3.42-.48-3.34-2.38.08-1.68 2.13-1.87 3.4-1.59.84.19 1.61.56 2.43.81 0 .57.05 1.15.07 1.72a6.42 6.42 0 0 1 -2.56 1.44z" fill="#1e1e1e"/><path d="m464.62 188.87c-.05-.08-.1-.16-.14-.24a1.09 1.09 0 0 0 -1.2-.49 5.34 5.34 0 0 0 -2.51 1.2 4 4 0 0 0 -.35.37 5.32 5.32 0 0 0 -.65-1.76.46.46 0 0 0 -.83.11c-.62 1.52-.34 3.38-.34 5 0 1.9-.18 3.83 0 5.71.09 1 1.74 1.45 2 .26a27.7 27.7 0 0 0 .15-6c0-.45 0-.93-.06-1.42a5.78 5.78 0 0 1 2.63-1.36c.79.4 1.9-.39 1.3-1.38z" fill="#1e1e1e"/><path d="m488.66 261.53c-.19-3.25-2.61-4.62-5.51-3.18a10.84 10.84 0 0 0 -5.3 9.18c1.27 21.38 1 60.87.89 66-.07 2.42-3.59 4.35-6.85 7-9.78.95-423 2.28-444.39 1.85-5.84-.12-11.63 13.59-5.16 13.72 37.93.77 316.08-.94 354-1.08 22.75-.08 42 .76 64.73.69 13.36 0 27.27 0 40.47-1.87 3.53-.5 6.26-6.65 7-9.58 1.35-5.11 1.46-60.97.12-82.73z" opacity=".2"/><path d="m11.26 248.26c1.22-2 1.38-1.82 4.34-1.88 8.41-.15 437.6.07 445.68 0 19-.12 17.22 7.68 17.08 10-.09 1.51.17 75.56-.17 78.6-.15 1.36-2.81 7.06-16.29 6.42-8.25.1-437.91 1.63-440 .7-11.45-1.57-12.46-5.57-12.68-8.05s-1.78-83.05 2.04-85.79z" fill="#5bbb5d" opacity=".85"/><path d="m472.37 248.49c-4.87-2.48-160.34-3.91-196.51-4-39.26-.13-176.07.77-205.19 1.94-16.55.67-37.06 3.46-49.2-.1a9.5 9.5 0 0 0 -12.29 9.22c0 1.92 0 70.84.06 78.57 0 3.3 4.07 7.6 6.85 6.22 3.13-1.55 5.32-4.28 5.3-7.69-.07-14.53-.42-69.68-.44-72.18a53.36 53.36 0 0 0 8.52 1.24c7.27.51 28.12-1.19 31.3-1.35 10-.47 89.44-1.89 119.18-2.06 66.56-.36 133.14-.31 199.68 1 12.5.25 70.84 4.2 87.58 3.93 5.32-.1 12.22-13.56 5.16-14.74z" fill="#fff" opacity=".2"/><path d="m479.88 313.89q-.11-18.67-.3-37.35c-.06-7.36.64-15.16-.2-22.48-1.06-9.29-11.84-8.64-19.13-8.75-25.6-.4-51.23-.09-76.84-.11l-145.65-.13q-71.14 0-142.3 0c-22.56 0-45.28-.73-67.84.19-4.74.2-10.55-.31-15.14 1-5.13 1.46-3.39 7.46-3.82 11.38a.37.37 0 0 0 0 .15c-1.12 7.18-.38 15.08-.48 22.29q-.24 18-.39 36.09c-.06 6.82-2 19.52 4 23.82 4.23 3.05 10.8 3.2 15.9 3.39 6.07.23 12.15.27 18.22.32 24.88.21 49.77 0 74.65 0q68.75-.11 137.49-.4 72-.22 144.05-.47l46.2-.16c8.09 0 27 2.3 30.37-6 2.65-6.67 1.24-15.93 1.21-22.78zm-2.24 13.4c0 4.6 0 9.52-4.95 11.51-4.71 1.89-10.15 1.51-15.18 1.53l-33.92.12-129.89.41q-71.47.24-142.95.49-36.93.12-73.87.37-11.14.09-22.28.08c-11.34 0-23.56 1.08-34.77-1.05a22.74 22.74 0 0 1 -5.27-1.32c-4.63-2.11-4.53-6.06-4.87-10.24-.11-1.45-.25-2.89-.28-4.35-.07-3.4 0-6.81.05-10.2q.09-17.53.24-35.07c.07-7-.76-14.82.38-21.78a1 1 0 0 0 .06-.18c.4-3.19-1.19-8.15 2.78-9.79 2.23-.92 6.08-.38 8.47-.48 3.14-.14 6.29-.33 9.43-.37h7.53q18 0 36 0 64 .09 128 .12 73.35.06 146.69.15 50.21.08 100.41.17h9.83 1.92a75.64 75.64 0 0 1 8.5.79c1.34.19 3.58.25 4.81.92 2.56 1.39 2.71 4.77 2.77 7.28.44 19.41.3 38.87.37 58.28 0 4.25.03 8.43-.01 12.61z" fill="#3aaf3a"/><path d="m216 289.49a13.72 13.72 0 0 0 -.26 1.94 6.52 6.52 0 0 0 -1.93.26.74.74 0 0 0 -.18 1.34 5.35 5.35 0 0 0 2 .6v2.17a34.25 34.25 0 0 0 .21 7.09c.21 1.1 1.72.72 1.81-.24.14-1.49-.42-5.49-.29-8.86a4.4 4.4 0 0 0 2.42-.37 1.09 1.09 0 0 0 -.26-2 4.4 4.4 0 0 0 -1.89-.14c.34-1.66 1-2.81 2.4-2.81a.71.71 0 0 0 .49-1.2c-1.72-2.09-4.05.21-4.52 2.22z" fill="#1e1e1e"/><path d="m231.38 292.92a.77.77 0 0 0 -.26-.07c-1.81-2.76-6.18-1.85-8.09.4a6.59 6.59 0 0 0 .2 8.62 6.15 6.15 0 0 0 8.45.22c2.15-2.09 2.83-7.54-.3-9.17zm-.68 7.37a4.43 4.43 0 0 1 -5.87.54 4.56 4.56 0 0 1 -1.06-5.9c1.57-2.58 4.15-2.3 6.47-1.29a.5.5 0 0 0 0 .13c.33.91 1 1.61 1.3 2.53a4.1 4.1 0 0 1 -.84 3.99z" fill="#1e1e1e"/><path d="m245.74 293.36a.85.85 0 0 0 -.12-.26 5.07 5.07 0 0 0 -7.78-.42 6.85 6.85 0 0 0 -.29 9 5.74 5.74 0 0 0 8.3.67c2.15-2.08 2.5-7.11-.11-8.99zm-.89 7.57a4.17 4.17 0 0 1 -6-.4c-3.22-3.76 1.26-9.83 5.5-6.46a.72.72 0 0 0 .32.15s0 .06 0 .08c1.01 2 2 4.81.18 6.63z" fill="#1e1e1e"/><path d="m252.81 293.34a11.91 11.91 0 0 0 2.47-.29c1.17-.27 1-2.27-.29-2.13l-2 .24a3.61 3.61 0 0 0 -.84-2.67.18.18 0 0 0 -.24 0 3.54 3.54 0 0 0 -1.12 2.73 3.13 3.13 0 0 0 -1.68.35.67.67 0 0 0 -.14 1.05 2.81 2.81 0 0 0 1.83.7v.57c0 2.21-.27 4.8.29 7 .5 2 3.18 4.12 4.63 1.73a.84.84 0 0 0 -.93-1.22c-2.83.78-2-5.94-2-7.47 0-.22.01-.4.02-.59z" fill="#1e1e1e"/><path d="m264 291.65c-2.62-.24-5.87 1.35-6.48 4.07-1.32 5.85 5.78 10.67 10.22 6.07a1 1 0 0 0 -1.37-1.37c-2.79 2.45-7 1.17-7.39-2.61 2.93.31 6 .07 8.92.15a1 1 0 0 0 1-1 5.29 5.29 0 0 0 -4.9-5.31zm-4.9 4.53c.95-3.65 6.47-3.84 7.64-.18a40.56 40.56 0 0 0 -7.69.18z" fill="#1e1e1e"/><path d="m277.66 291.07a5.56 5.56 0 0 1 -.83.08 3 3 0 0 0 -1 .42 10.18 10.18 0 0 0 -1.53 1.25 6.18 6.18 0 0 0 -.68.73c-.1-.47-.21-.92-.34-1.35a.7.7 0 0 0 -.51-.51h-.16a.56.56 0 0 0 -.61.25c-.54 1.23 0 3.06.1 4.35.12 2.07-.1 4.15 0 6.22a1 1 0 0 0 1.93 0 27.49 27.49 0 0 0 -.06-6.71c.55-.43 1.06-1.08 1.56-1.48a6.7 6.7 0 0 1 1.32-.93c.45-.19.92-.05 1.38-.22 1.27-.52.71-2.6-.57-2.1z" fill="#1e1e1e"/></svg>